<?xml version="1.0" encoding="UTF-8"?>
<svg width="536px" height="412px" viewBox="0 0 536 412" version="1.1" xmlns="http://www.w3.org/2000/svg" xmlns:xlink="http://www.w3.org/1999/xlink">
    <title>chat</title>
    <g id="Page-1" stroke="none" stroke-width="1" fill="none" fill-rule="evenodd">
        <g id="chat" transform="translate(51.000000, 28.000000)">
            <path d="M80.2439156,2.84217094e-14 C-35.4809606,170.881642 -26.0351599,212.54965 108.581318,125.004022 C310.506034,-6.31441931 324.395772,56.5752556 313.988494,74.6123779 C303.581217,92.6495001 45.7334257,206.918107 33.3941949,222.100148 C21.0549641,237.28219 232.634283,148.392272 254.023757,148.392272 C275.413232,148.392272 83.6345036,243.613427 145.940378,222.100148 C208.246252,200.586869 454.971926,57.4147232 432.774994,86.6721643 C410.578061,115.929605 95.052505,291.789494 70.3563731,321.726282 C45.6602412,351.663071 386.289786,195.117649 406.751443,198.004022 C427.213101,200.890395 280.278178,301.14825 280.278178,383.89766" id="Background" stroke="#FFF1AA" stroke-width="100"></path>
            <g id="bubble" transform="translate(60.000000, 77.000000)" stroke="#14208B" stroke-width="10">
                <path d="M239,5 C254.187831,5 267.937831,11.1560847 277.890873,21.109127 C287.843915,31.0621694 294,44.8121694 294,60 L294,60 L294,83.2606635 C294,98.4484941 287.843915,112.198494 277.890873,122.151536 C267.937831,132.104579 254.187831,138.260664 239,138.260664 L239,138.260664 L201.055008,138.260664 L201.055008,219.105983 L91.3187294,138.260664 L60,138.260664 C44.8121694,138.260664 31.0621694,132.104579 21.109127,122.151536 C11.1560847,112.198494 5,98.4484941 5,83.2606635 L5,83.2606635 L5,60 C5,44.8121694 11.1560847,31.0621694 21.109127,21.109127 C31.0621694,11.1560847 44.8121694,5 60,5 L60,5 Z" id="Combined-Shape"></path>
                <g id="Group" transform="translate(70.000000, 53.000000)" fill="#D8D8D8">
                    <ellipse id="Oval" cx="19.2441077" cy="19" rx="14.2441077" ry="14"></ellipse>
                    <ellipse id="Oval-Copy" cx="80.5" cy="19" rx="14.2441077" ry="14"></ellipse>
                    <ellipse id="Oval-Copy-2" cx="141.755892" cy="19" rx="14.2441077" ry="14"></ellipse>
                </g>
            </g>
        </g>
    </g>
</svg>