<?xml version="1.0" encoding="UTF-8"?>
<svg width="535px" height="413px" viewBox="0 0 535 413" version="1.1" xmlns="http://www.w3.org/2000/svg" xmlns:xlink="http://www.w3.org/1999/xlink">
    <title>Untitled 2</title>
    <g id="Page-1" stroke="none" stroke-width="1" fill="none" fill-rule="evenodd">
        <path d="M130.965738,28.9959778 C15.2408614,199.87762 24.6866621,241.545628 159.30314,154 C361.227856,22.6815585 375.117594,85.5712334 364.710316,103.608356 C354.303039,121.645478 96.4552477,235.914084 84.1160169,251.096126 C71.7767861,266.278168 283.356105,177.38825 304.745579,177.38825 C326.135054,177.38825 134.356326,272.609405 196.6622,251.096126 C258.968074,229.582847 505.693748,86.410701 483.496816,115.668142 C461.299884,144.925583 145.774327,320.785472 121.078195,350.72226 C96.3820633,380.659048 437.011608,224.113627 457.473265,227 C477.934923,229.886373 331,330.144228 331,412.893638" id="Background" stroke="#FFF1AA" stroke-width="100"></path>
        <g id="nut-tree" transform="translate(287.000000, 71.000000)">
            <path d="M55.3860375,19 C52.632515,19 50.5555056,21.0250516 50.5555056,23.7094602 L50.5555056,78.4828388 C49.3046698,76.4754631 47.9946713,74.5066952 46.706888,72.5697904 C41.1921263,64.2821265 35.9839351,56.4545008 35.6614631,46.9151052 C35.5833589,44.6081697 33.8660028,42.2730924 30.7336518,42.2730924 C29.3855366,42.2730924 28.1127194,42.7873211 27.2407121,43.6841396 C26.3857756,44.5628171 25.9583073,45.7243088 26.0032055,47.042325 C26.4000401,58.7946948 32.5176537,68.140586 38.4329916,77.1787772 C40.3182483,80.0597137 42.26828,83.0385654 43.9868054,86.0343952 C47.4636097,92.0932696 49.6121757,99.102688 50.5566748,107.462451 L50.5566748,127.378753 C50.5566748,127.786694 50.6081207,128.185099 50.7121816,128.586528 L50.7082062,128.646068 C50.6967478,128.820966 50.6862248,128.995399 50.6738311,129.168902 C50.577487,130.497617 50.967774,131.672365 51.8035352,132.565462 C52.6563672,133.477166 53.9263783,134 55.2878226,134 C57.6262706,134 60.1068961,132.434289 60.3243718,129.442413 C60.9608973,120.700758 60.9265221,113.540397 60.2175047,106.921011 L60.2175047,86.9809853 C63.4709873,81.9205657 72.3002651,79.432685 76.9179982,77.3676301 C83.6263038,74.3683116 89.3096676,70.103772 91.7491365,62.9717853 C93.5371137,57.7432123 85.2424051,55.5181441 83.4686924,60.7008994 C80.4385316,69.5618666 67.7872945,71.2434014 60.5888502,75.4165381 C60.4618725,75.4895674 60.3426117,75.5732953 60.2175047,75.6491155 L60.2175047,23.7094602 C60.2163355,21.0238887 58.1395599,19 55.3860375,19 Z" id="Path" fill="#000000"></path>
            <path d="M1.17923318,40.8012178 C-1.50773838,49.4165428 0.472746971,60.1082265 6.34866714,68.7037167 C11.6944902,76.5237809 19.3614924,81.3060797 27.3849912,81.8243526 C27.514901,81.8325199 27.6429516,81.8367202 27.7670515,81.8367202 C30.5139814,81.8367202 32.5734817,79.7724958 32.6643488,76.9286452 C32.7477793,74.3239795 31.0106133,71.4371922 27.628543,71.2192422 C22.2657549,70.8724824 18.5062722,67.3992837 16.2959465,64.5470324 C12.0026484,59.0058756 9.88807008,51.1302738 11.035413,44.9495015 C12.4046948,37.5662706 19.1925399,31.5595783 26.1663025,31.5595783 C29.214651,31.5595783 31.998532,32.6609958 34.4419518,34.8346619 C34.7094405,35.0726801 35.0004012,35.2819961 35.3276159,35.4724106 C36.2074701,36.2483033 37.3292494,36.6730024 38.5154025,36.6730024 C40.4336055,36.6730024 42.3148575,35.5858193 43.3074241,33.9033574 C44.2451451,32.3133026 44.255603,30.4348257 43.3367061,28.7507303 C40.3775979,23.3297494 44.0555093,17.3048557 49.2191334,14.1555484 C53.0099896,11.8430383 58.3188617,10.6709154 64.9986423,10.6709154 C66.4787774,10.6709154 68.0053918,10.7250529 69.6674936,10.8363614 C76.1578708,11.2715613 81.8244015,14.5191095 85.623624,19.983027 C89.7470401,25.9134135 91.0242928,33.5806327 89.0561245,40.5295971 C88.2520316,42.1415869 88.297349,44.183643 89.188823,45.8021666 C90.0770435,47.4150899 91.6691939,48.3918979 93.5578825,48.4812714 C96.6936122,48.6308495 99.2773996,50.313078 101.238364,53.4815201 C104.969494,59.5110809 105.048044,68.3774917 102.981107,73.1334218 C99.0271083,82.231317 87.0582094,84.2134018 78.3986406,84.9129886 C78.1557859,84.9330568 77.9150229,84.970393 77.6561329,85.0282641 C74.2814992,85.0894021 72.4857693,87.6562649 72.4564873,90.1925587 C72.4213954,93.1477179 70.3751418,95.2828811 67.4804075,95.3850889 C64.1057739,95.504098 62.3328188,98.3211132 62.3772066,100.912711 C62.4285663,103.860637 64.5419826,106 67.401625,106 C67.4708792,106 67.5419926,105.9986 67.6131061,105.9958 C74.4474305,105.756148 80.1546306,101.45922 82.2085534,95.1573381 C100.262762,92.9477359 111.006465,85.4377954 114.153582,72.8216647 C117.211459,60.5658281 111.855178,44.1901768 100.168874,39.3117373 C101.703854,30.2213094 99.565804,21.2652917 94.0731061,13.9284977 C88.01917,5.84661344 78.5638747,0.811128649 68.1271677,0.11224191 C67.0179379,0.038269591 65.8933699,0 64.7857668,0 C54.8793893,0 45.8080135,2.95329234 39.244896,8.31640217 C35.2634744,11.5686174 32.6473839,16.4776258 31.9771515,21.7919652 C30.1140266,21.292127 28.1986123,21.0408078 26.2578668,21.0398744 C15.1211808,21.038941 4.80787649,29.165862 1.17923318,40.8012178 L1.17923318,40.8012178 Z" id="Path" fill="#056200" fill-rule="nonzero"></path>
        </g>
        <rect id="Ground" stroke="#979797" fill="#8B5B14" x="132.5" y="279.5" width="177" height="11" rx="5.5"></rect>
        <g id="Arrow" transform="translate(189.149379, 165.822193)">
            <polygon id="Triangle" fill="#979797" transform="translate(32.099835, 84.323439) rotate(-158.000000) translate(-32.099835, -84.323439) " points="32.0998345 54.3234393 54.5998345 114.323439 9.59983453 114.323439"></polygon>
            <path d="M41.6981559,58.3070955 C50.0566654,31.6504938 63.3884786,12.2147953 81.6935953,-1.42108547e-14" id="Path-3" stroke="#979797" stroke-width="6"></path>
        </g>
        <circle id="Oval" stroke="#979797" stroke-width="7" cx="344.5" cy="138.5" r="77"></circle>
    </g>
</svg>