<?xml version="1.0" encoding="UTF-8"?>
<svg width="2664px" height="2419px" viewBox="0 0 2664 2419" version="1.1" xmlns="http://www.w3.org/2000/svg" xmlns:xlink="http://www.w3.org/1999/xlink">
    <title>nut_cracker</title>
    <defs>
        <filter x="-16.9%" y="-10.0%" width="133.8%" height="120.1%" filterUnits="objectBoundingBox" id="filter-1">
            <feGaussianBlur stdDeviation="45" in="SourceGraphic"></feGaussianBlur>
        </filter>
    </defs>
    <g id="Page-1" stroke="none" stroke-width="1" fill="none" fill-rule="evenodd">
        <path d="M1057.09838,185.359409 C185.457483,982.965394 20.1493176,1205.84514 561.173884,853.99865 C1372.71073,326.228914 2057.40612,512.279009 2015.5792,584.77033 C1973.75228,657.261651 610.76534,1157.30834 561.173884,1218.32507 C511.582429,1279.3418 1361.92119,922.092597 1447.88564,922.092597 C1533.85009,922.092597 156.123727,1587.42546 406.531472,1500.96344 C656.939216,1414.50142 2279.62386,919.937643 2190.41423,1037.5235 C2101.2046,1155.10936 808.979065,1498.40704 709.725138,1618.7232 C610.471211,1739.03936 2328.27295,1466.6333 2410.5085,1478.23366 C2492.74404,1489.83401 985.504389,1721.78931 985.504389,2054.35976 C985.504389,2276.0734 1451.42823,2174.38513 2383.2759,1749.29496" id="Background" stroke="#97DF86" stroke-width="500"></path>
        <path d="M1129.60174,1779.44186 C1054.34107,1756.7994 1123.68196,1530.96547 1337.62443,1101.94005 C1530.80298,714.553167 1701.65117,533.841893 1804.78925,533.841893 C1844.69406,533.841893 1865.56943,530.538995 1879.55359,565.784252 C1907.11359,635.245691 1907.11359,763.087137 1879.55359,949.308592 C1759.89636,1568.9426 1647.09681,1878.75961 1541.15494,1878.75961 C1478.41777,1878.75961 1521.31251,1770.21201 1584.8229,1549.79044 C1624.50533,1412.06712 1651.58427,1279.31561 1666.05973,1151.5359 C1674.52239,1130.65576 1677.53144,1115.76463 1675.08689,1106.86251 C1672.64234,1097.96039 1662.39555,1086.49449 1644.34654,1072.46481 C1704.57702,994.735893 1738.52017,948.39522 1746.17597,933.442793 C1757.65967,911.014152 1769.87081,874.414787 1765.03428,847.976692 C1760.19775,821.538597 1745.59215,813.451352 1746.17597,803.573202 C1746.71708,794.417648 1746.36106,786.438301 1749.20964,780.153947 C1765.03428,745.242605 1775.42292,739.335373 1781.68881,718.154083 C1787.95471,696.972794 1787.28096,670.177281 1784.29683,661.544881 C1781.3127,652.912481 1775.97225,652.541493 1765.03428,669.97641 C1757.7423,681.599689 1747.84413,706.228454 1735.33978,743.862708 C1698.64904,772.771277 1672.8184,807.475938 1657.84787,847.976692 C1642.87733,888.477446 1631.71842,953.842967 1624.37114,1044.07326 C1603.36647,1036.37277 1588.18335,1034.4959 1578.82177,1038.44266 C1564.77941,1044.36279 1568.06624,1053.81321 1556.37141,1072.46481 C1544.67658,1091.11642 1505.53075,1145.07282 1478.41777,1190.26022 C1380.21371,1353.93034 1302.2813,1514.92358 1257.79175,1617.06753 C1201.01916,1747.41222 1158.28916,1801.53699 1129.60174,1779.44186 Z" id="Shadow_Base" fill="#7F7F7F" filter="url(#filter-1)" transform="translate(1500.223590, 1206.259606) rotate(24.000000) translate(-1500.223590, -1206.259606) "></path>
        <path d="M753.363581,1823.93113 C677.722831,1797.01354 747.413907,1528.5398 962.436811,1018.50989 C1156.59093,557.980322 1328.30192,343.148869 1431.96086,343.148869 C1472.0672,343.148869 1493.048,339.22235 1507.10277,381.12228 C1534.80196,463.698765 1534.80196,615.678013 1507.10277,837.060024 C1386.84126,1573.68741 1273.47206,1942.00111 1166.99518,1942.00111 C1103.94117,1942.00111 1147.05253,1812.95859 1210.88366,1550.91913 C1250.76649,1387.1922 1277.98218,1229.37581 1292.53075,1077.46997 C1301.03614,1052.64744 1304.06039,1034.94471 1301.60349,1024.36177 C1299.14659,1013.77883 1288.84806,1000.14805 1270.7079,983.469428 C1331.24255,891.064475 1365.35711,835.974198 1373.05158,818.198596 C1384.59328,791.535194 1396.86609,748.025487 1392.00513,716.595603 C1387.14417,685.165719 1372.46481,675.551517 1373.05158,663.808269 C1373.59543,652.924052 1373.23761,643.43812 1376.10057,635.967215 C1392.00513,594.464246 1402.44623,587.441667 1408.74377,562.261128 C1415.04131,537.08059 1414.36416,505.225803 1411.36496,494.963516 C1408.36575,484.701229 1402.99834,484.260194 1392.00513,504.987007 C1384.67632,518.804881 1374.72817,548.083816 1362.16067,592.82381 C1325.28464,627.190619 1299.32355,668.447883 1284.27741,716.595603 C1269.23127,764.743323 1258.01601,842.450537 1250.63162,949.717248 C1229.52088,940.562825 1214.26108,938.331586 1204.85222,943.023531 C1190.73894,950.061449 1194.04237,961.296206 1182.28849,983.469428 C1170.5346,1005.64265 1131.19108,1069.78659 1103.94117,1123.50584 C1005.24117,1318.07859 926.915192,1509.46904 882.200966,1630.89883 C825.141667,1785.85396 782.195872,1850.19806 753.363581,1823.93113 Z" id="Base" stroke="#000000" stroke-width="14" fill="#D8D8D8"></path>
        <g id="Shadows_arms" transform="translate(740.393562, 874.258510)">
            <path d="M546.105817,114.927841 L602.156811,124.099238 C611.62501,113.288735 616.298256,150.128075 616.176551,234.617258 C615.993992,361.351032 615.599514,346.56682 602.156811,461.493612 C595.637646,517.228442 585.067206,579.15118 578.176551,613.64645 C573.771666,635.697715 571.771097,652.083669 565.206303,682.070266 C560.864653,701.902012 554.526662,729.936739 544.176551,761.416061 C501.517433,891.161533 476.170686,949.269647 461.488499,982.186814 C446.806312,1015.10398 435.485447,1020.06264 429.427403,1018.68134 C423.36936,1017.30004 409.138322,1015.70005 420.192669,972.770911 C431.247017,929.841768 453.425076,867.1283 480.49925,748.634732 C507.573423,630.141163 508.908777,613.503027 530.314341,490.809392 C551.719905,368.115758 556.722845,311.966997 562.176551,276.94621 C565.812354,253.599019 568.479021,229.55196 570.176551,204.805035 C582.766821,164.667062 584.581055,140.13716 575.619253,131.215329 C566.657452,122.293499 556.819639,116.864336 546.105817,114.927841 Z" id="Shadow_right" stroke="#979797" fill="#B6B6B6"></path>
            <path d="M3.41221732,886.068103 C13.2742281,875.361141 33.7408518,913.746065 43.6326776,886.068103 C53.5245034,858.390142 5.56816126,932.627399 164.626789,542.149168 C270.665874,281.830347 334.924939,127.381389 357.403982,78.8022933 C378.481891,37.2289612 394.23033,13.7594209 404.6493,8.39367243 C453.372237,-16.6985424 476.259112,20.4536992 451.28093,41.5957633 C418.751328,78.8022933 438.699408,71.6487578 418.751328,105.526033 C319.118286,274.730082 230.963086,471.866177 194.960984,563.713478 C149.318891,680.153986 116.40156,762.52367 101.643536,800.204254 C86.8855116,837.884837 86.8855116,844.365918 74.2783451,871.843628 C61.6711787,899.321338 56.602969,907.051288 43.6326776,916.952228 C30.6623862,926.853168 22.9395195,922.906079 15.1858064,916.952228 C7.43209332,910.998377 -6.44979347,896.775066 3.41221732,886.068103 Z" id="Shadow_left" stroke="#ABABAB" stroke-width="3" fill-opacity="0.5" fill="#969595"></path>
        </g>
        <g id="Top" transform="translate(1270.707903, 371.000000)">
            <path d="M135.173097,112.82999 C135.173097,112.82999 181.483015,56.0206698 190.292097,84.0611692 C196.103496,102.559637 211.294001,128.052595 207.065661,173.644899 C204.884564,197.162696 183.15272,231.394443 182.494559,261.50916 C180.56047,350.005165 233.829448,327.847978 182.494559,440.844536 C148.2713,516.175575 111.084521,577.475064 70.9342212,624.743003 L0,612.469428 L67.4583688,503.25851 C81.6384906,479.343085 91.8772062,461.20524 98.1745155,448.844973 C104.471825,436.484706 109.642082,421.195182 113.685286,402.976402 C118.686295,383.327932 119.663606,361.686024 116.61722,338.05068 C109.384884,313.390364 98.1745155,307.676081 98.1745155,289.201289 C98.1745155,270.805631 101.500863,262.463875 106.720676,250.159245 C109.741607,243.038023 117.06031,226.690381 122.88869,216.930413 C134.840206,196.916892 135.626074,186.290005 138.075653,169.077971 C140.525233,151.865938 138.903405,142.426868 138.075653,132.337879 C137.247901,122.248889 135.173097,112.82999 135.173097,112.82999 Z" id="Shadow_top" stroke="#000000" stroke-width="5" fill="#969595"></path>
            <g id="Riffel" transform="translate(13.862209, 389.055006)" fill="#D8D8D8" stroke="#979797">
                <rect id="Rectangle" transform="translate(31.442703, 215.332518) rotate(13.000000) translate(-31.442703, -215.332518) " x="0.942702807" y="210.332518" width="61" height="10"></rect>
                <rect id="Rectangle" transform="translate(39.442703, 201.332518) rotate(13.000000) translate(-39.442703, -201.332518) " x="8.94270281" y="196.332518" width="61" height="10"></rect>
                <rect id="Rectangle" transform="translate(49.442703, 188.332518) rotate(13.000000) translate(-49.442703, -188.332518) " x="18.9427028" y="183.332518" width="61" height="10"></rect>
                <rect id="Rectangle" transform="translate(57.442703, 176.332518) rotate(13.000000) translate(-57.442703, -176.332518) " x="26.9427028" y="171.332518" width="61" height="10"></rect>
                <rect id="Rectangle" transform="translate(65.442703, 162.332518) rotate(13.000000) translate(-65.442703, -162.332518) " x="34.9427028" y="157.332518" width="61" height="10"></rect>
                <rect id="Rectangle" transform="translate(75.442703, 149.332518) rotate(13.000000) translate(-75.442703, -149.332518) " x="44.9427028" y="144.332518" width="61" height="10"></rect>
                <rect id="Rectangle" transform="translate(81.442703, 136.332518) rotate(13.000000) translate(-81.442703, -136.332518) " x="50.9427028" y="131.332518" width="61" height="10"></rect>
                <rect id="Rectangle" transform="translate(89.442703, 122.332518) rotate(13.000000) translate(-89.442703, -122.332518) " x="58.9427028" y="117.332518" width="61" height="10"></rect>
                <rect id="Rectangle" transform="translate(99.442703, 109.332518) rotate(13.000000) translate(-99.442703, -109.332518) " x="68.9427028" y="104.332518" width="61" height="10"></rect>
                <rect id="Rectangle" transform="translate(103.442703, 95.332518) rotate(13.000000) translate(-103.442703, -95.332518) " x="72.9427028" y="90.332518" width="61" height="10"></rect>
                <rect id="Rectangle" transform="translate(111.442703, 81.332518) rotate(13.000000) translate(-111.442703, -81.332518) " x="80.9427028" y="76.332518" width="61" height="10"></rect>
                <rect id="Rectangle" transform="translate(121.442703, 68.332518) rotate(13.000000) translate(-121.442703, -68.332518) " x="90.9427028" y="63.332518" width="61" height="10"></rect>
                <rect id="Rectangle" transform="translate(125.442703, 54.332518) rotate(13.000000) translate(-125.442703, -54.332518) " x="94.9427028" y="49.332518" width="61" height="10"></rect>
                <rect id="Rectangle" transform="translate(132.442703, 40.332518) rotate(13.000000) translate(-132.442703, -40.332518) " x="101.942703" y="35.332518" width="61" height="10"></rect>
                <rect id="Rectangle" transform="translate(138.442703, 26.332518) rotate(13.000000) translate(-138.442703, -26.332518) " x="107.942703" y="21.332518" width="61" height="10"></rect>
                <rect id="Rectangle" transform="translate(141.442703, 12.332518) rotate(13.000000) translate(-141.442703, -12.332518) " x="110.942703" y="7.33251804" width="61" height="10"></rect>
                <rect id="Rectangle" transform="translate(141.442703, 12.332518) rotate(13.000000) translate(-141.442703, -12.332518) " x="110.942703" y="7.33251804" width="61" height="10"></rect>
                <rect id="Rectangle" transform="translate(36.929888, 207.944994) rotate(21.000000) translate(-36.929888, -207.944994) " x="9.92988784" y="198.444994" width="54" height="19"></rect>
            </g>
            <ellipse id="Hinge" stroke="#000000" stroke-width="3" fill="#969595" cx="209.792097" cy="32" rx="18" ry="30.5"></ellipse>
        </g>
    </g>
</svg>