<?xml version="1.0" encoding="UTF-8"?>
<svg width="2526px" height="2291px" viewBox="0 0 2526 2291" version="1.1" xmlns="http://www.w3.org/2000/svg" xmlns:xlink="http://www.w3.org/1999/xlink">
    <title>plugin</title>
    <g id="Page-1" stroke="none" stroke-width="1" fill="none" fill-rule="evenodd">
        <g id="plugin" transform="translate(250.552636, 185.000000)">
            <path d="M755.061605,0 C-60.7555937,746.523806 -215.4767,955.129358 290.898285,625.816657 C1050.46076,131.847605 1691.30526,305.982238 1652.15712,373.830897 C1613.00897,441.679556 337.313686,909.701064 290.898285,966.810018 C244.482884,1023.91897 1040.36223,689.54957 1120.82114,689.54957 C1201.28005,689.54957 -88.2106871,1312.2716 146.159849,1231.34699 C380.530385,1150.42237 1899.2912,687.532628 1815.79495,797.587775 C1732.2987,907.642923 522.832937,1228.95431 429.935666,1341.5649 C337.038395,1454.17549 1944.8246,1199.21551 2021.79342,1210.07292 C2098.76224,1220.93034 688.052806,1438.0302 688.052806,1749.30139 C688.052806,1956.81552 1124.13684,1861.63981 1996.30491,1463.77427" id="Background" stroke="#97DF86" stroke-width="500"></path>
            <g id="Stecker" transform="translate(418.447364, 305.000000)" fill-rule="nonzero">
                <path d="M105.913669,1227.30935 C80.9928058,1252.23022 43.6115108,1252.23022 18.6906475,1227.30935 L18.6906475,1227.30935 C-6.23021583,1202.38849 -6.23021583,1165.00719 18.6906475,1140.08633 L327.086331,831.690647 C352.007194,806.769784 389.388489,806.769784 414.309353,831.690647 L414.309353,831.690647 C439.230216,856.611511 439.230216,893.992806 414.309353,918.913669 L105.913669,1227.30935 Z" id="Path" fill="#231F20" opacity="0.2"></path>
                <path d="M501.913669,476.309353 C476.992806,501.230216 439.611511,501.230216 414.690647,476.309353 L414.690647,476.309353 C389.769784,451.388489 389.769784,414.007194 414.690647,389.086331 L723.086331,80.6906475 C748.007194,55.7697842 785.388489,55.7697842 810.309353,80.6906475 L810.309353,80.6906475 C835.230216,105.611511 835.230216,142.992806 810.309353,167.913669 L501.913669,476.309353 Z" id="Path" fill="#231F20" opacity="0.2"></path>
                <path d="M859.913669,831.309353 C834.992806,856.230216 797.611511,856.230216 772.690647,831.309353 L772.690647,831.309353 C747.769784,806.388489 747.769784,769.007194 772.690647,744.086331 L1081.08633,435.690647 C1106.00719,410.769784 1143.38849,410.769784 1168.30935,435.690647 L1168.30935,435.690647 C1193.23022,460.611511 1193.23022,497.992806 1168.30935,522.913669 L859.913669,831.309353 Z" id="Path" fill="#231F20" opacity="0.2"></path>
                <path d="M105.913669,1165.30935 C80.9928058,1190.23022 43.6115108,1190.23022 18.6906475,1165.30935 L18.6906475,1165.30935 C-6.23021583,1140.38849 -6.23021583,1103.00719 18.6906475,1078.08633 L327.086331,769.690647 C352.007194,744.769784 389.388489,744.769784 414.309353,769.690647 L414.309353,769.690647 C439.230216,794.611511 439.230216,831.992806 414.309353,856.913669 L105.913669,1165.30935 Z" id="Path" fill="#4F5D73"></path>
                <path d="M501.913669,414.309353 C476.992806,439.230216 439.611511,439.230216 414.690647,414.309353 L414.690647,414.309353 C389.769784,389.388489 389.769784,352.007194 414.690647,327.086331 L723.086331,18.6906475 C748.007194,-6.23021583 785.388489,-6.23021583 810.309353,18.6906475 L810.309353,18.6906475 C835.230216,43.6115108 835.230216,80.9928058 810.309353,105.913669 L501.913669,414.309353 Z" id="Path" fill="#E0E0D1"></path>
                <path d="M859.913669,767.309353 C834.992806,792.230216 797.611511,792.230216 772.690647,767.309353 L772.690647,767.309353 C747.769784,742.388489 747.769784,705.007194 772.690647,680.086331 L1081.08633,371.690647 C1106.00719,346.769784 1143.38849,346.769784 1168.30935,371.690647 L1168.30935,371.690647 C1193.23022,396.611511 1193.23022,433.992806 1168.30935,458.913669 L859.913669,767.309353 Z" id="Path" fill="#E0E0D1"></path>
                <path d="M403.106329,257 L153.587342,506.518987 C19.4708861,640.635443 19.4708861,858.964557 153.587342,993.081013 L240.918987,1080.41266 C375.035443,1214.52911 593.364557,1214.52911 727.481013,1080.41266 L977,830.893671 L403.106329,257 Z" id="Path" fill="#231F20" opacity="0.2"></path>
                <path d="M403.106329,207 L153.587342,456.518987 C19.4708861,590.635443 19.4708861,808.964557 153.587342,943.081013 L240.918987,1030.41266 C375.035443,1164.52911 593.364557,1164.52911 727.481013,1030.41266 L977,780.893671 L403.106329,207 Z" id="Path" fill="#4F5D73"></path>
                <path d="M1033.26891,915.268908 C1008.29412,940.243697 970.831933,940.243697 945.857143,915.268908 L327.731092,297.142857 C302.756303,272.168067 302.756303,234.705882 327.731092,209.731092 L327.731092,209.731092 C352.705882,184.756303 390.168067,184.756303 415.142857,209.731092 L1033.26891,827.857143 C1058.2437,852.831933 1058.2437,890.294118 1033.26891,915.268908 L1033.26891,915.268908 Z" id="Path" fill="#231F20" opacity="0.2"></path>
                <path d="M1033.26891,856.268908 C1008.29412,881.243697 970.831933,881.243697 945.857143,856.268908 L327.731092,238.142857 C302.756303,213.168067 302.756303,175.705882 327.731092,150.731092 L327.731092,150.731092 C352.705882,125.756303 390.168067,125.756303 415.142857,150.731092 L1033.26891,768.857143 C1058.2437,793.831933 1058.2437,831.294118 1033.26891,856.268908 L1033.26891,856.268908 Z" id="Path" fill="#4F5D73"></path>
            </g>
        </g>
    </g>
</svg>